{"accessors":[{"bufferView":0,"componentType":5126,"count":151,"min":[0.0],"max":[5.0],"type":"SCALAR","name":"accessorAnimationInput"},{"bufferView":1,"componentType":5126,"count":151,"type":"VEC3","name":"accessorAnimationPositions"},{"bufferView":0,"byteOffset":604,"componentType":5126,"count":151,"min":[0.0],"max":[5.0],"type":"SCALAR","name":"accessorAnimationInput"},{"bufferView":2,"componentType":5126,"count":151,"type":"VEC4","name":"accessorAnimationRotations"},{"bufferView":0,"byteOffset":1208,"componentType":5126,"count":151,"min":[0.0],"max":[5.0],"type":"SCALAR","name":"accessorAnimationInput"},{"bufferView":1,"byteOffset":1812,"componentType":5126,"count":151,"type":"VEC3","name":"accessorAnimationPositions"},{"bufferView":0,"byteOffset":1812,"componentType":5126,"count":151,"min":[0.0],"max":[5.0],"type":"SCALAR","name":"accessorAnimationInput"},{"bufferView":2,"byteOffset":2416,"componentType":5126,"count":151,"type":"VEC4","name":"accessorAnimationRotations"},{"bufferView":0,"byteOffset":2416,"componentType":5126,"count":151,"min":[0.0],"max":[5.0],"type":"SCALAR","name":"accessorAnimationInput"},{"bufferView":1,"byteOffset":3624,"componentType":5126,"count":151,"type":"VEC3","name":"accessorAnimationScales"},{"bufferView":0,"byteOffset":3020,"componentType":5126,"count":161,"min":[0.0],"max":[5.33333349],"type":"SCALAR","name":"accessorAnimationInput"},{"bufferView":1,"byteOffset":5436,"componentType":5126,"count":161,"type":"VEC3","name":"accessorAnimationPositions"},{"bufferView":0,"byteOffset":3664,"componentType":5126,"count":161,"min":[0.0],"max":[5.33333349],"type":"SCALAR","name":"accessorAnimationInput"},{"bufferView":2,"byteOffset":4832,"componentType":5126,"count":161,"type":"VEC4","name":"accessorAnimationRotations"},{"bufferView":0,"byteOffset":4308,"componentType":5126,"count":161,"min":[0.0],"max":[5.33333349],"type":"SCALAR","name":"accessorAnimationInput"},{"bufferView":1,"byteOffset":7368,"componentType":5126,"count":161,"type":"VEC3","name":"accessorAnimationScales"},{"bufferView":0,"byteOffset":4952,"componentType":5126,"count":161,"min":[0.0],"max":[5.33333349],"type":"SCALAR","name":"accessorAnimationInput"},{"bufferView":1,"byteOffset":9300,"componentType":5126,"count":161,"type":"VEC3","name":"accessorAnimationPositions"},{"bufferView":0,"byteOffset":5596,"componentType":5126,"count":161,"min":[0.0],"max":[5.33333349],"type":"SCALAR","name":"accessorAnimationInput"},{"bufferView":2,"byteOffset":7408,"componentType":5126,"count":161,"type":"VEC4","name":"accessorAnimationRotations"},{"bufferView":0,"byteOffset":6240,"componentType":5126,"count":161,"min":[0.0],"max":[5.33333349],"type":"SCALAR","name":"accessorAnimationInput"},{"bufferView":1,"byteOffset":11232,"componentType":5126,"count":161,"type":"VEC3","name":"accessorAnimationPositions"},{"bufferView":0,"byteOffset":6884,"componentType":5126,"count":161,"min":[0.0],"max":[5.33333349],"type":"SCALAR","name":"accessorAnimationInput"},{"bufferView":2,"byteOffset":9984,"componentType":5126,"count":161,"type":"VEC4","name":"accessorAnimationRotations"},{"bufferView":0,"byteOffset":7528,"componentType":5126,"count":161,"min":[0.0],"max":[5.33333349],"type":"SCALAR","name":"accessorAnimationInput"},{"bufferView":1,"byteOffset":13164,"componentType":5126,"count":161,"type":"VEC3","name":"accessorAnimationPositions"},{"bufferView":0,"byteOffset":8172,"componentType":5126,"count":161,"min":[0.0],"max":[5.33333349],"type":"SCALAR","name":"accessorAnimationInput"},{"bufferView":2,"byteOffset":12560,"componentType":5126,"count":161,"type":"VEC4","name":"accessorAnimationRotations"},{"bufferView":0,"byteOffset":8816,"componentType":5126,"count":161,"min":[0.0],"max":[5.33333349],"type":"SCALAR","name":"accessorAnimationInput"},{"bufferView":1,"byteOffset":15096,"componentType":5126,"count":161,"type":"VEC3","name":"accessorAnimationScales"},{"bufferView":0,"byteOffset":9460,"componentType":5126,"count":161,"min":[0.0],"max":[5.33333349],"type":"SCALAR","name":"accessorAnimationInput"},{"bufferView":1,"byteOffset":17028,"componentType":5126,"count":161,"type":"VEC3","name":"accessorAnimationPositions"},{"bufferView":0,"byteOffset":10104,"componentType":5126,"count":161,"min":[0.0],"max":[5.33333349],"type":"SCALAR","name":"accessorAnimationInput"},{"bufferView":2,"byteOffset":15136,"componentType":5126,"count":161,"type":"VEC4","name":"accessorAnimationRotations"},{"bufferView":0,"byteOffset":10748,"componentType":5126,"count":161,"min":[0.0],"max":[5.33333349],"type":"SCALAR","name":"accessorAnimationInput"},{"bufferView":1,"byteOffset":18960,"componentType":5126,"count":161,"type":"VEC3","name":"accessorAnimationPositions"},{"bufferView":0,"byteOffset":11392,"componentType":5126,"count":161,"min":[0.0],"max":[5.33333349],"type":"SCALAR","name":"accessorAnimationInput"},{"bufferView":2,"byteOffset":17712,"componentType":5126,"count":161,"type":"VEC4","name":"accessorAnimationRotations"},{"bufferView":0,"byteOffset":12036,"componentType":5126,"count":161,"min":[0.0],"max":[5.33333349],"type":"SCALAR","name":"accessorAnimationInput"},{"bufferView":1,"byteOffset":20892,"componentType":5126,"count":161,"type":"VEC3","name":"accessorAnimationScales"},{"bufferView":0,"byteOffset":12680,"componentType":5126,"count":141,"min":[0.0],"max":[4.66666651],"type":"SCALAR","name":"accessorAnimationInput"},{"bufferView":1,"byteOffset":22824,"componentType":5126,"count":141,"type":"VEC3","name":"accessorAnimationPositions"},{"bufferView":0,"byteOffset":13244,"componentType":5126,"count":141,"min":[0.0],"max":[4.66666651],"type":"SCALAR","name":"accessorAnimationInput"},{"bufferView":2,"byteOffset":20288,"componentType":5126,"count":141,"type":"VEC4","name":"accessorAnimationRotations"},{"bufferView":0,"byteOffset":13808,"componentType":5126,"count":2,"min":[0.0],"max":[4.66666651],"type":"SCALAR","name":"accessorAnimationInput"},{"bufferView":1,"byteOffset":24516,"componentType":5126,"count":2,"type":"VEC3","name":"accessorAnimationScales"},{"bufferView":0,"byteOffset":13816,"componentType":5126,"count":141,"min":[0.0],"max":[4.66666651],"type":"SCALAR","name":"accessorAnimationInput"},{"bufferView":1,"byteOffset":24540,"componentType":5126,"count":141,"type":"VEC3","name":"accessorAnimationPositions"},{"bufferView":0,"byteOffset":14380,"componentType":5126,"count":141,"min":[0.0],"max":[4.66666651],"type":"SCALAR","name":"accessorAnimationInput"},{"bufferView":2,"byteOffset":22544,"componentType":5126,"count":141,"type":"VEC4","name":"accessorAnimationRotations"},{"bufferView":0,"byteOffset":14944,"componentType":5126,"count":141,"min":[0.0],"max":[4.66666651],"type":"SCALAR","name":"accessorAnimationInput"},{"bufferView":1,"byteOffset":26232,"componentType":5126,"count":141,"type":"VEC3","name":"accessorAnimationPositions"},{"bufferView":0,"byteOffset":15508,"componentType":5126,"count":161,"min":[0.0],"max":[5.33333349],"type":"SCALAR","name":"accessorAnimationInput"},{"bufferView":1,"byteOffset":27924,"componentType":5126,"count":161,"type":"VEC3","name":"accessorAnimationPositions"},{"bufferView":0,"byteOffset":16152,"componentType":5126,"count":161,"min":[0.0],"max":[5.33333349],"type":"SCALAR","name":"accessorAnimationInput"},{"bufferView":2,"byteOffset":24800,"componentType":5126,"count":161,"type":"VEC4","name":"accessorAnimationRotations"},{"bufferView":0,"byteOffset":16796,"componentType":5126,"count":161,"min":[0.0],"max":[5.33333349],"type":"SCALAR","name":"accessorAnimationInput"},{"bufferView":1,"byteOffset":29856,"componentType":5126,"count":161,"type":"VEC3","name":"accessorAnimationScales"},{"bufferView":0,"byteOffset":17440,"componentType":5126,"count":161,"min":[0.0],"max":[5.33333349],"type":"SCALAR","name":"accessorAnimationInput"},{"bufferView":1,"byteOffset":31788,"componentType":5126,"count":161,"type":"VEC3","name":"accessorAnimationPositions"},{"bufferView":0,"byteOffset":18084,"componentType":5126,"count":161,"min":[0.0],"max":[5.33333349],"type":"SCALAR","name":"accessorAnimationInput"},{"bufferView":2,"byteOffset":27376,"componentType":5126,"count":161,"type":"VEC4","name":"accessorAnimationRotations"},{"bufferView":0,"byteOffset":18728,"componentType":5126,"count":151,"min":[0.0],"max":[5.0],"type":"SCALAR","name":"accessorAnimationInput"},{"bufferView":1,"byteOffset":33720,"componentType":5126,"count":151,"type":"VEC3","name":"accessorAnimationPositions"},{"bufferView":0,"byteOffset":19332,"componentType":5126,"count":151,"min":[0.0],"max":[5.0],"type":"SCALAR","name":"accessorAnimationInput"},{"bufferView":1,"byteOffset":35532,"componentType":5126,"count":151,"type":"VEC3","name":"accessorAnimationPositions"},{"bufferView":0,"byteOffset":19936,"componentType":5126,"count":151,"min":[0.0],"max":[5.0],"type":"SCALAR","name":"accessorAnimationInput"},{"bufferView":2,"byteOffset":29952,"componentType":5126,"count":151,"type":"VEC4","name":"accessorAnimationRotations"}],"animations":[{"name":"Boeing787-10_Board","channels":[{"sampler":0,"target":{"node":15,"path":"translation"}},{"sampler":1,"target":{"node":15,"path":"rotation"}},{"sampler":2,"target":{"node":6,"path":"translation"}},{"sampler":3,"target":{"node":6,"path":"rotation"}},{"sampler":4,"target":{"node":6,"path":"scale"}}],"samplers":[{"input":0,"output":1,"interpolation":"LINEAR"},{"input":2,"output":3,"interpolation":"LINEAR"},{"input":4,"output":5,"interpolation":"LINEAR"},{"input":6,"output":7,"interpolation":"LINEAR"},{"input":8,"output":9,"interpolation":"LINEAR"}]},{"name":"Boeing787-10_Fuse","channels":[{"sampler":0,"target":{"node":3,"path":"translation"}},{"sampler":1,"target":{"node":3,"path":"rotation"}},{"sampler":2,"target":{"node":3,"path":"scale"}},{"sampler":3,"target":{"node":12,"path":"translation"}},{"sampler":4,"target":{"node":12,"path":"rotation"}}],"samplers":[{"input":10,"output":11,"interpolation":"LINEAR"},{"input":12,"output":13,"interpolation":"LINEAR"},{"input":14,"output":15,"interpolation":"LINEAR"},{"input":16,"output":17,"interpolation":"LINEAR"},{"input":18,"output":19,"interpolation":"LINEAR"}]},{"name":"Boeing787-10_Lowboard","channels":[{"sampler":0,"target":{"node":14,"path":"translation"}},{"sampler":1,"target":{"node":14,"path":"rotation"}},{"sampler":2,"target":{"node":5,"path":"translation"}},{"sampler":3,"target":{"node":5,"path":"rotation"}},{"sampler":4,"target":{"node":5,"path":"scale"}}],"samplers":[{"input":20,"output":21,"interpolation":"LINEAR"},{"input":22,"output":23,"interpolation":"LINEAR"},{"input":24,"output":25,"interpolation":"LINEAR"},{"input":26,"output":27,"interpolation":"LINEAR"},{"input":28,"output":29,"interpolation":"LINEAR"}]},{"name":"Boeing787-10_Global","channels":[{"sampler":0,"target":{"node":13,"path":"translation"}},{"sampler":1,"target":{"node":13,"path":"rotation"}},{"sampler":2,"target":{"node":4,"path":"translation"}},{"sampler":3,"target":{"node":4,"path":"rotation"}},{"sampler":4,"target":{"node":4,"path":"scale"}}],"samplers":[{"input":30,"output":31,"interpolation":"LINEAR"},{"input":32,"output":33,"interpolation":"LINEAR"},{"input":34,"output":35,"interpolation":"LINEAR"},{"input":36,"output":37,"interpolation":"LINEAR"},{"input":38,"output":39,"interpolation":"LINEAR"}]},{"name":"Boeing787-10_Overhead","channels":[{"sampler":0,"target":{"node":16,"path":"translation"}},{"sampler":1,"target":{"node":16,"path":"rotation"}},{"sampler":2,"target":{"node":7,"path":"scale"}}],"samplers":[{"input":40,"output":41,"interpolation":"LINEAR"},{"input":42,"output":43,"interpolation":"LINEAR"},{"input":44,"output":45,"interpolation":"LINEAR"}]},{"name":"Boeing787-10_Pedestal","channels":[{"sampler":0,"target":{"node":11,"path":"translation"}},{"sampler":1,"target":{"node":11,"path":"rotation"}},{"sampler":2,"target":{"node":2,"path":"translation"}}],"samplers":[{"input":46,"output":47,"interpolation":"LINEAR"},{"input":48,"output":49,"interpolation":"LINEAR"},{"input":50,"output":51,"interpolation":"LINEAR"}]},{"name":"Boeing787-10_Throttle","channels":[{"sampler":0,"target":{"node":0,"path":"translation"}},{"sampler":1,"target":{"node":0,"path":"rotation"}},{"sampler":2,"target":{"node":0,"path":"scale"}},{"sampler":3,"target":{"node":9,"path":"translation"}},{"sampler":4,"target":{"node":9,"path":"rotation"}}],"samplers":[{"input":52,"output":53,"interpolation":"LINEAR"},{"input":54,"output":55,"interpolation":"LINEAR"},{"input":56,"output":57,"interpolation":"LINEAR"},{"input":58,"output":59,"interpolation":"LINEAR"},{"input":60,"output":61,"interpolation":"LINEAR"}]},{"name":"Boeing787-10_Yoke","channels":[{"sampler":0,"target":{"node":1,"path":"translation"}},{"sampler":1,"target":{"node":10,"path":"translation"}},{"sampler":2,"target":{"node":10,"path":"rotation"}}],"samplers":[{"input":62,"output":63,"interpolation":"LINEAR"},{"input":64,"output":65,"interpolation":"LINEAR"},{"input":66,"output":67,"interpolation":"LINEAR"}]}],"asset":{"generator":"babylon.jsglTFexporterfor3dsmax2019v1.5.0","version":"2.0","extensions":{"ASOBO_asset_optimized":{"MajorVersion":4,"MinorVersion":4},"ASOBO_normal_map_convention":{"tangent_space_convention":"DirectX"}}},"bufferViews":[{"buffer":0,"byteLength":20540,"name":"bufferViewAnimationFloatScalar"},{"buffer":0,"byteLength":37344,"byteOffset":20540,"name":"bufferViewAnimationFloatVec3"},{"buffer":0,"byteLength":32368,"byteOffset":57884,"name":"bufferViewAnimationFloatVec4"}],"nodes":[{"translation":[0.127036572,1.19933593,25.6204529],"rotation":[0.49999997,-0.50000006,0.5000001,0.49999997],"scale":[1.0,1.0,1.0],"name":"Boeing787-10_Throttle_TARGET"},{"translation":[0.388142318,1.14641571,25.89879],"rotation":[0.49999994,-0.50000006,0.5,0.5],"scale":[0.9999999,0.9999999,0.9999999],"name":"Boeing787-10_Yoke_TARGET"},{"translation":[0.122671753,1.17301714,24.70915],"rotation":[0.0,0.0,0.0,1.0],"scale":[1.0,1.0,1.0],"name":"Boeing787-10_Pedestal_TARGET"},{"translation":[-0.829868853,1.1736449,24.1925335],"rotation":[0.49999994,-0.5000001,0.50000006,0.49999997],"scale":[0.9999999,0.99999994,1.0],"name":"Boeing787-10_Fuse_TARGET"},{"translation":[0.0265212338,1.45105684,26.211401],"rotation":[0.008689925,-0.7603909,0.6493279,0.0101762721],"scale":[1.00000036,1.00000012,1.00000024],"name":"Boeing787-10_Global_TARGET"},{"translation":[0.0039789076,1.13261652,25.5498581],"rotation":[0.0,0.0,0.0,1.0],"scale":[1.0,1.0,1.0],"name":"Boeing787-10_Lowboard_TARGET"},{"translation":[-0.09940091,1.53875124,25.3859119],"rotation":[0.5,-0.5,0.5,0.5],"scale":[0.999999762,0.999999762,0.999999762],"name":"Boeing787-10_Board_TARGET"},{"translation":[0.0241103936,1.87565243,25.6985264],"rotation":[0.49999997,-0.50000006,0.5000001,0.49999997],"scale":[1.0,1.0,1.0],"name":"Boeing787-10_Overhead_TARGET"},{"translation":[0.0,0.0,0.0],"rotation":[0.0,0.0,0.0,1.0],"scale":[1.0,1.0,1.0],"name":"Defaultlight"},{"translation":[0.359840274,1.55008209,25.3110447],"rotation":[0.114030115,-0.8849354,-0.34121266,-0.2957372],"scale":[1.0,1.0,1.0],"camera":0,"name":"Boeing787-10_Throttle_CAMERA"},{"translation":[0.688360631,1.241748,25.3696251],"rotation":[0.0198111758,-0.963976,-0.0750668049,-0.254406631],"scale":[0.9999999,0.9999998,0.9999998],"camera":1,"name":"Boeing787-10_Yoke_CAMERA"},{"translation":[0.08451746,1.26097369,24.3545837],"rotation":[-0.00646162033,-0.9912738,-0.1204415,0.05318129],"scale":[1.0,1.0,1.0],"camera":2,"name":"Boeing787-10_Pedestal_CAMERA"},{"translation":[-0.757337868,1.17709124,24.1588612],"rotation":[0.011585593199999999,-0.842739344,-0.0181516111,-0.537891],"scale":[0.9999998,0.999999762,0.9999997],"camera":3,"name":"Boeing787-10_Fuse_CAMERA"},{"translation":[0.0621981174,1.71915185,24.250309],"rotation":[0.0006172727,-0.9976529,-0.0678662956,-0.009074081],"scale":[0.9999998,1.0,1.0],"camera":4,"name":"Boeing787-10_Global_CAMERA"},{"translation":[-0.001210717,1.36804533,25.0384083],"rotation":[-0.00108578335,-0.976816356,-0.214018762,0.004955692],"scale":[1.00000012,1.0,1.0],"camera":5,"name":"Boeing787-10_Lowboard_CAMERA"},{"translation":[0.4253351,1.58156741,24.9733829],"rotation":[0.0139947534,-0.898994267,-0.0288038254,-0.436788],"scale":[0.999999762,0.9999998,0.999999762],"camera":6,"name":"Boeing787-10_Board_CAMERA"},{"translation":[-0.0129952617,1.49266541,24.270359],"rotation":[0.00169595284,-0.9913536,0.130573809,0.0128761437],"scale":[0.99999994,1.00000012,0.9999999],"camera":7,"name":"Boeing787-10_Overhead_CAMERA"}],"scene":0,"scenes":[{"nodes":[0,1,2,3,4,5,6,7,8,9,10,11,12,13,14,15,16]}],"cameras":[{"type":"perspective","name":"Boeing787-10_Throttle_CAMERA","perspective":{"zfar":1000.0,"znear":0.0001,"yfov":0.7984415}},{"type":"perspective","name":"Boeing787-10_Yoke_CAMERA","perspective":{"zfar":100.0,"znear":0.0001,"yfov":0.7984415}},{"type":"perspective","name":"Boeing787-10_Pedestal_CAMERA","perspective":{"zfar":500.0,"znear":0.0001,"yfov":0.5631969}},{"type":"perspective","name":"Boeing787-10_Fuse_CAMERA","perspective":{"zfar":10000.0,"znear":0.1,"yfov":0.5631969}},{"type":"perspective","name":"Boeing787-10_Global_CAMERA","perspective":{"zfar":10000.0,"znear":0.1,"yfov":0.5631969}},{"type":"perspective","name":"Boeing787-10_Lowboard_CAMERA","perspective":{"zfar":10000.0,"znear":0.1,"yfov":0.809989333}},{"type":"perspective","name":"Boeing787-10_Board_CAMERA","perspective":{"zfar":100000.0,"znear":0.0001,"yfov":0.5631969}},{"type":"perspective","name":"Boeing787-10_Overhead_CAMERA","perspective":{"zfar":1000.0,"znear":0.0001,"yfov":0.809989333}}],"extensionsUsed":["ASOBO_normal_map_convention","ASOBO_asset_optimized"],"buffers":[{"byteLength":90252,"uri":"PlaneShowcase_COCKPIT.bin"}]}
