{"accessors":[{"bufferView":0,"componentType":5126,"count":141,"min":[0.0],"max":[4.66666651],"type":"SCALAR","name":"accessorAnimationInput"},{"bufferView":1,"componentType":5126,"count":141,"type":"VEC3","name":"accessorAnimationPositions"},{"bufferView":0,"byteOffset":564,"componentType":5126,"count":141,"min":[0.0],"max":[4.66666651],"type":"SCALAR","name":"accessorAnimationInput"},{"bufferView":2,"componentType":5126,"count":141,"type":"VEC4","name":"accessorAnimationRotations"},{"bufferView":0,"byteOffset":1128,"componentType":5126,"count":141,"min":[0.0],"max":[4.66666651],"type":"SCALAR","name":"accessorAnimationInput"},{"bufferView":1,"byteOffset":1692,"componentType":5126,"count":141,"type":"VEC3","name":"accessorAnimationPositions"},{"bufferView":0,"byteOffset":1692,"componentType":5126,"count":141,"min":[0.0],"max":[4.66666651],"type":"SCALAR","name":"accessorAnimationInput"},{"bufferView":2,"byteOffset":2256,"componentType":5126,"count":141,"type":"VEC4","name":"accessorAnimationRotations"},{"bufferView":0,"byteOffset":2256,"componentType":5126,"count":141,"min":[0.0],"max":[4.66666651],"type":"SCALAR","name":"accessorAnimationInput"},{"bufferView":1,"byteOffset":3384,"componentType":5126,"count":141,"type":"VEC3","name":"accessorAnimationScales"},{"bufferView":0,"byteOffset":2820,"componentType":5126,"count":161,"min":[0.0],"max":[5.33333349],"type":"SCALAR","name":"accessorAnimationInput"},{"bufferView":1,"byteOffset":5076,"componentType":5126,"count":161,"type":"VEC3","name":"accessorAnimationPositions"},{"bufferView":0,"byteOffset":3464,"componentType":5126,"count":161,"min":[0.0],"max":[5.33333349],"type":"SCALAR","name":"accessorAnimationInput"},{"bufferView":2,"byteOffset":4512,"componentType":5126,"count":161,"type":"VEC4","name":"accessorAnimationRotations"},{"bufferView":0,"byteOffset":4108,"componentType":5126,"count":161,"min":[0.0],"max":[5.33333349],"type":"SCALAR","name":"accessorAnimationInput"},{"bufferView":1,"byteOffset":7008,"componentType":5126,"count":161,"type":"VEC3","name":"accessorAnimationPositions"},{"bufferView":0,"byteOffset":4752,"componentType":5126,"count":161,"min":[0.0],"max":[5.33333349],"type":"SCALAR","name":"accessorAnimationInput"},{"bufferView":2,"byteOffset":7088,"componentType":5126,"count":161,"type":"VEC4","name":"accessorAnimationRotations"},{"bufferView":0,"byteOffset":5396,"componentType":5126,"count":161,"min":[0.0],"max":[5.33333349],"type":"SCALAR","name":"accessorAnimationInput"},{"bufferView":1,"byteOffset":8940,"componentType":5126,"count":161,"type":"VEC3","name":"accessorAnimationScales"},{"bufferView":0,"byteOffset":6040,"componentType":5126,"count":141,"min":[0.0],"max":[4.66666651],"type":"SCALAR","name":"accessorAnimationInput"},{"bufferView":1,"byteOffset":10872,"componentType":5126,"count":141,"type":"VEC3","name":"accessorAnimationPositions"},{"bufferView":0,"byteOffset":6604,"componentType":5126,"count":141,"min":[0.0],"max":[4.66666651],"type":"SCALAR","name":"accessorAnimationInput"},{"bufferView":2,"byteOffset":9664,"componentType":5126,"count":141,"type":"VEC4","name":"accessorAnimationRotations"},{"bufferView":0,"byteOffset":7168,"componentType":5126,"count":141,"min":[0.0],"max":[4.66666651],"type":"SCALAR","name":"accessorAnimationInput"},{"bufferView":1,"byteOffset":12564,"componentType":5126,"count":141,"type":"VEC3","name":"accessorAnimationPositions"},{"bufferView":0,"byteOffset":7732,"componentType":5126,"count":141,"min":[0.0],"max":[4.66666651],"type":"SCALAR","name":"accessorAnimationInput"},{"bufferView":2,"byteOffset":11920,"componentType":5126,"count":141,"type":"VEC4","name":"accessorAnimationRotations"},{"bufferView":0,"byteOffset":8296,"componentType":5126,"count":141,"min":[0.0],"max":[4.66666651],"type":"SCALAR","name":"accessorAnimationInput"},{"bufferView":1,"byteOffset":14256,"componentType":5126,"count":141,"type":"VEC3","name":"accessorAnimationScales"},{"bufferView":0,"byteOffset":8860,"componentType":5126,"count":181,"min":[0.0],"max":[6.0],"type":"SCALAR","name":"accessorAnimationInput"},{"bufferView":1,"byteOffset":15948,"componentType":5126,"count":181,"type":"VEC3","name":"accessorAnimationPositions"},{"bufferView":0,"byteOffset":9584,"componentType":5126,"count":181,"min":[0.0],"max":[6.0],"type":"SCALAR","name":"accessorAnimationInput"},{"bufferView":2,"byteOffset":14176,"componentType":5126,"count":181,"type":"VEC4","name":"accessorAnimationRotations"},{"bufferView":0,"byteOffset":10308,"componentType":5126,"count":2,"min":[0.0],"max":[6.0],"type":"SCALAR","name":"accessorAnimationInput"},{"bufferView":1,"byteOffset":18120,"componentType":5126,"count":2,"type":"VEC3","name":"accessorAnimationScales"},{"bufferView":0,"byteOffset":10316,"componentType":5126,"count":161,"min":[0.0],"max":[5.33333349],"type":"SCALAR","name":"accessorAnimationInput"},{"bufferView":1,"byteOffset":18144,"componentType":5126,"count":161,"type":"VEC3","name":"accessorAnimationPositions"},{"bufferView":0,"byteOffset":10960,"componentType":5126,"count":161,"min":[0.0],"max":[5.33333349],"type":"SCALAR","name":"accessorAnimationInput"},{"bufferView":2,"byteOffset":17072,"componentType":5126,"count":161,"type":"VEC4","name":"accessorAnimationRotations"},{"bufferView":0,"byteOffset":11604,"componentType":5126,"count":161,"min":[0.0],"max":[5.33333349],"type":"SCALAR","name":"accessorAnimationInput"},{"bufferView":1,"byteOffset":20076,"componentType":5126,"count":161,"type":"VEC3","name":"accessorAnimationPositions"},{"bufferView":0,"byteOffset":12248,"componentType":5126,"count":161,"min":[0.0],"max":[5.33333349],"type":"SCALAR","name":"accessorAnimationInput"},{"bufferView":2,"byteOffset":19648,"componentType":5126,"count":161,"type":"VEC4","name":"accessorAnimationRotations"},{"bufferView":0,"byteOffset":12892,"componentType":5126,"count":161,"min":[0.0],"max":[5.33333349],"type":"SCALAR","name":"accessorAnimationInput"},{"bufferView":1,"byteOffset":22008,"componentType":5126,"count":161,"type":"VEC3","name":"accessorAnimationScales"},{"bufferView":0,"byteOffset":13536,"componentType":5126,"count":161,"min":[0.0],"max":[5.33333349],"type":"SCALAR","name":"accessorAnimationInput"},{"bufferView":1,"byteOffset":23940,"componentType":5126,"count":161,"type":"VEC3","name":"accessorAnimationPositions"},{"bufferView":0,"byteOffset":14180,"componentType":5126,"count":161,"min":[0.0],"max":[5.33333349],"type":"SCALAR","name":"accessorAnimationInput"},{"bufferView":2,"byteOffset":22224,"componentType":5126,"count":161,"type":"VEC4","name":"accessorAnimationRotations"},{"bufferView":0,"byteOffset":14824,"componentType":5126,"count":161,"min":[0.0],"max":[5.33333349],"type":"SCALAR","name":"accessorAnimationInput"},{"bufferView":1,"byteOffset":25872,"componentType":5126,"count":161,"type":"VEC3","name":"accessorAnimationPositions"},{"bufferView":0,"byteOffset":15468,"componentType":5126,"count":161,"min":[0.0],"max":[5.33333349],"type":"SCALAR","name":"accessorAnimationInput"},{"bufferView":2,"byteOffset":24800,"componentType":5126,"count":161,"type":"VEC4","name":"accessorAnimationRotations"},{"bufferView":0,"byteOffset":16112,"componentType":5126,"count":161,"min":[0.0],"max":[5.33333349],"type":"SCALAR","name":"accessorAnimationInput"},{"bufferView":1,"byteOffset":27804,"componentType":5126,"count":161,"type":"VEC3","name":"accessorAnimationScales"}],"animations":[{"name":"Boeing787-10_BoeingText","channels":[{"sampler":0,"target":{"node":7,"path":"translation"}},{"sampler":1,"target":{"node":7,"path":"rotation"}},{"sampler":2,"target":{"node":1,"path":"translation"}},{"sampler":3,"target":{"node":1,"path":"rotation"}},{"sampler":4,"target":{"node":1,"path":"scale"}}],"samplers":[{"input":0,"output":1,"interpolation":"LINEAR"},{"input":2,"output":3,"interpolation":"LINEAR"},{"input":4,"output":5,"interpolation":"LINEAR"},{"input":6,"output":7,"interpolation":"LINEAR"},{"input":8,"output":9,"interpolation":"LINEAR"}]},{"name":"Boeing787-10_DoorBackRightToTail","channels":[{"sampler":0,"target":{"node":11,"path":"translation"}},{"sampler":1,"target":{"node":11,"path":"rotation"}},{"sampler":2,"target":{"node":5,"path":"translation"}},{"sampler":3,"target":{"node":5,"path":"rotation"}},{"sampler":4,"target":{"node":5,"path":"scale"}}],"samplers":[{"input":10,"output":11,"interpolation":"LINEAR"},{"input":12,"output":13,"interpolation":"LINEAR"},{"input":14,"output":15,"interpolation":"LINEAR"},{"input":16,"output":17,"interpolation":"LINEAR"},{"input":18,"output":19,"interpolation":"LINEAR"}]},{"name":"Boeing787-10_EngineRight","channels":[{"sampler":0,"target":{"node":8,"path":"translation"}},{"sampler":1,"target":{"node":8,"path":"rotation"}},{"sampler":2,"target":{"node":2,"path":"translation"}},{"sampler":3,"target":{"node":2,"path":"rotation"}},{"sampler":4,"target":{"node":2,"path":"scale"}}],"samplers":[{"input":20,"output":21,"interpolation":"LINEAR"},{"input":22,"output":23,"interpolation":"LINEAR"},{"input":24,"output":25,"interpolation":"LINEAR"},{"input":26,"output":27,"interpolation":"LINEAR"},{"input":28,"output":29,"interpolation":"LINEAR"}]},{"name":"Boeing787-10_Tail","channels":[{"sampler":0,"target":{"node":9,"path":"translation"}},{"sampler":1,"target":{"node":9,"path":"rotation"}},{"sampler":2,"target":{"node":3,"path":"scale"}}],"samplers":[{"input":30,"output":31,"interpolation":"LINEAR"},{"input":32,"output":33,"interpolation":"LINEAR"},{"input":34,"output":35,"interpolation":"LINEAR"}]},{"name":"Boeing787-10_EngineBack","channels":[{"sampler":0,"target":{"node":10,"path":"translation"}},{"sampler":1,"target":{"node":10,"path":"rotation"}},{"sampler":2,"target":{"node":4,"path":"translation"}},{"sampler":3,"target":{"node":4,"path":"rotation"}},{"sampler":4,"target":{"node":4,"path":"scale"}}],"samplers":[{"input":36,"output":37,"interpolation":"LINEAR"},{"input":38,"output":39,"interpolation":"LINEAR"},{"input":40,"output":41,"interpolation":"LINEAR"},{"input":42,"output":43,"interpolation":"LINEAR"},{"input":44,"output":45,"interpolation":"LINEAR"}]},{"name":"Boeing787-10_WingTipLeft","channels":[{"sampler":0,"target":{"node":6,"path":"translation"}},{"sampler":1,"target":{"node":6,"path":"rotation"}},{"sampler":2,"target":{"node":0,"path":"translation"}},{"sampler":3,"target":{"node":0,"path":"rotation"}},{"sampler":4,"target":{"node":0,"path":"scale"}}],"samplers":[{"input":46,"output":47,"interpolation":"LINEAR"},{"input":48,"output":49,"interpolation":"LINEAR"},{"input":50,"output":51,"interpolation":"LINEAR"},{"input":52,"output":53,"interpolation":"LINEAR"},{"input":54,"output":55,"interpolation":"LINEAR"}]}],"asset":{"generator":"babylon.js glTF exporter for 3dsmax 2019 v1.5.0","version":"2.0","extensions":{"ASOBO_asset_optimized":{"MajorVersion":4,"MinorVersion":4},"ASOBO_normal_map_convention":{"tangent_space_convention":"DirectX"}}},"bufferViews":[{"buffer":0,"byteLength":16756,"name":"bufferViewAnimationFloatScalar"},{"buffer":0,"byteLength":29736,"byteOffset":16756,"name":"bufferViewAnimationFloatVec3"},{"buffer":0,"byteLength":27376,"byteOffset":46492,"name":"bufferViewAnimationFloatVec4"}],"nodes":[{"translation":[3.37499714,-7.21704769,3.119706],"rotation":[-0.286951125,-0.67747,0.592482865,-0.328112036],"scale":[1.0,1.0,1.00000012],"name":"Boeing787-10_WingTipLeft_TARGET"},{"translation":[-65.68658,18.4354115,-170.961792],"rotation":[0.6736336,-0.04058469,0.03709438,0.737017453],"scale":[0.99999994,0.9999999,1.00000012],"name":"Boeing787-10_BoeingText_TARGET"},{"translation":[-12.0236168,-4.3810606,-13.1819439],"rotation":[0.625377357,0.0886723846,-0.07183751,0.7719325],"scale":[1.00000012,1.00000012,1.00000024],"name":"Boeing787-10_EngineRight_TARGET"},{"translation":[0.401011944,3.106176,21.8144341],"rotation":[-0.0329218768,-0.729280055,0.6827463,-0.0304018967],"scale":[0.9999998,1.00000012,0.9999998],"name":"Boeing787-10_Tail_TARGET"},{"translation":[-19.8468189,-12.1948442,33.2777252],"rotation":[-0.0329220369,-0.7292801,0.682746232,-0.030402068],"scale":[1.00000024,1.00000024,1.00000012],"name":"Boeing787-10_EngineBack_TARGETt"},{"translation":[-0.8975655,2.42107582,-30.1450462],"rotation":[-0.8291008,0.145699441,-0.2534815,-0.476561368],"scale":[1.00000012,1.00000012,1.00000024],"name":"Boeing787-10_DoorBackRightToTail_TARGET"},{"translation":[31.0931168,5.91476774,-19.2663116],"rotation":[0.0757203251,-0.8882773,-0.158485442,-0.4243964],"scale":[1.0,1.0,1.00000036],"camera":0,"name":"Boeing787-10_WingTipLeft_CAMERA"},{"translation":[9.824699,-1.67016637,27.846035],"rotation":[0.0463390946,0.180299819,-0.008503899,0.982482731],"scale":[1.0,0.99999994,0.99999994],"camera":1,"name":"Boeing787-10_BoeingText_CAMERA"},{"translation":[-7.005046,0.3687228,10.7825966],"rotation":[-0.0951505,0.102560982,0.009856146,0.9901165],"scale":[0.9999999,0.99999994,0.99999994],"camera":2,"name":"Boeing787-10_EngineRight_CAMERA"},{"translation":[1.84817111,7.00168657,-43.65081],"rotation":[0.0003282763,-0.9994977,-0.0297040343,-0.0110459821],"scale":[0.9999998,1.00000024,1.00000024],"camera":3,"name":"Boeing787-10_Tail_CAMERA"},{"translation":[5.3176403,4.83496,-45.7373734],"rotation":[0.0155239925,-0.9830779,-0.09990135,-0.152763546],"scale":[0.9999998,1.00000012,1.00000036],"camera":4,"name":"Boeing787-10_EngineBack_CAMERA"},{"translation":[-11.2399006,-1.11913824,-25.3125458],"rotation":[0.126364112,-0.5309135,0.08043377,0.834082365],"scale":[1.00000012,1.00000012,1.00000024],"camera":5,"name":"Boeing787-10_DoorBackRightToTail_CAMERA"}],"scene":0,"scenes":[{"nodes":[0,1,2,3,4,5,6,7,8,9,10,11]}],"cameras":[{"type":"perspective","name":"Boeing787-10_WingTipLeft_CAMERA","perspective":{"zfar":10000.0,"znear":0.1,"yfov":0.7983902}},{"type":"perspective","name":"Boeing787-10_BoeingText_CAMERA","perspective":{"zfar":10000.0,"znear":0.1,"yfov":0.563359439}},{"type":"perspective","name":"Boeing787-10_EngineRight_CAMERA","perspective":{"zfar":10000.0,"znear":0.1,"yfov":0.798153639}},{"type":"perspective","name":"Boeing787-10_Tail_CAMERA","perspective":{"zfar":10000.0,"znear":0.1,"yfov":0.563162}},{"type":"perspective","name":"Boeing787-10_EngineBack_CAMERA","perspective":{"zfar":10000.0,"znear":0.1,"yfov":0.5632262}},{"type":"perspective","name":"Boeing787-10_DoorBackRightToTail_CAMERA","perspective":{"zfar":10000.0,"znear":0.1,"yfov":0.6942788}}],"extensionsUsed":["ASOBO_normal_map_convention","ASOBO_asset_optimized"],"buffers":[{"byteLength":73868,"uri":"PlaneShowcase_GROUND.bin"}]}
